<?xml version="1.0" encoding="UTF-8" standalone="no"?>
<svg width="128" height="128" viewBox="0 0 360 360"
     xmlns="http://www.w3.org/2000/svg"
     xmlns:xlink="http://www.w3.org/1999/xlink">
  <defs>
    <g id="hu-flag">
      <rect x="0" y="0" width="360" height="120" fill-opacity="100" fill="#CE2939"/>
      <rect x="0" y="120" width="360" height="120" fill-opacity="100" fill="#FFF"/>
      <rect x="0" y="240" width="360" height="120" fill-opacity="100" fill="#477050"/>
    </g>
    <g id="de-flag">
      <rect x="0" y="0" width="360" height="120" fill-opacity="100" fill="#000"/>
      <rect x="0" y="120" width="360" height="120" fill-opacity="100" fill="#F00"/>
      <rect x="0" y="240" width="360" height="120" fill-opacity="100" fill="#FC0"/>
    </g>
    <clipPath id="hu-flag-clip-path">
      <polygon points="0,0 140,0 220,180 140,360 0,360"/>
    </clipPath>
    <clipPath id="de-flag-clip-path">
      <polygon points="0,0 360,0 360,360 0,360 100,180"/>
    </clipPath>
    <radialGradient id="flag-trans-gradient" cx="10%" cy="50%" r="55%" fx="10%" fy="50%">
      <stop offset="0%" style="stop-color:rgb(50,50,50);stop-opacity:1" />
      <stop offset="100%" style="stop-color:rgb(150,150,150);stop-opacity:1" />
    </radialGradient>
    <polygon id="flag-transition" points="0,0 20,0 120,180 20,360 0,360 70,180" fill="url(#flag-trans-gradient)" />
    <clipPath id="logo-clip">
      <rect x="0" y="0" width="360" height="360"/>
    </clipPath>
    <g id="logo" clip-path="url(#logo-clip)">
      <use x="0" y="0" transform="translate(0,0) scale(1,1)" xlink:href="#hu-flag" clip-path="url(#hu-flag-clip-path)"/>
      <use x="0" y="0" transform="translate(160,0) scale(1,1)" xlink:href="#de-flag" clip-path="url(#de-flag-clip-path)"/>
      <use x="0" y="0" transform="translate(140,0) scale(1,1)" xlink:href="#flag-transition"/>
    </g>
  </defs>
  <rect x="0" y="0" width="360" height="360" fill-opacity="50" fill="#cce"/>
  <use x="60" y="60" transform="translate(0,0) scale(0.75)" xlink:href="#logo"/>
</svg>
